# xmcd
#
# Track frame offsets: 
#        182
#        16647
#        33582
#        53832
#        68305
#        83985
#        99882
#        114732
#        135602
#        150287
#        167120
#        184225
#        199412
#        212850
#        229142
#        247445
#
# Disc length: 3488 seconds
#
# Revision: 4
# Processed by: cddbd v1.5.2PL0 Copyright (c) Steve Scherf et al.
# Submitted via: ExactAudioCopy v1.0b3
#
DISCID=d70d9e10
DTITLE=Nicole - Nur das Beste - Die groessten Hits
DYEAR=2000
DGENRE=Schlager
TTITLE0=Ein bisschen Frieden (Millenium Version)
TTITLE1=Song for the world
TTITLE2=Papilon
TTITLE3=Flieg nicht so hoch, mein kleiner Freund
TTITLE4=Wenn die Blumen weinen koennten
TTITLE5=Dann kuess mich doch
TTITLE6=Und ausserdem hab ich dich lieb
TTITLE7=Abrakadabra
TTITLE8=Allein in Griechenland
TTITLE9=Lass mich nicht allein
TTITLE10=Mit dir vielleicht
TTITLE11=Mehr als ein bisschen Frieden
TTITLE12=Ein leises Lied
TTITLE13=Wer schlaeft schon gern allein
TTITLE14=Wirst du mich lieben
TTITLE15=Halt dich fest
EXTD=#D70D9E107A0364A7
EXTT0=
EXTT1=
EXTT2=
EXTT3=
EXTT4=
EXTT5=
EXTT6=
EXTT7=
EXTT8=
EXTT9=
EXTT10=
EXTT11=
EXTT12=
EXTT13=
EXTT14=
EXTT15=
PLAYORDER=
